<mxfile host="app.diagrams.net" modified="2024-06-19T13:19:06.528Z" agent="Mozilla/5.0 (Windows NT 10.0; Win64; x64) AppleWebKit/537.36 (KHTML, like Gecko) Chrome/126.0.0.0 Safari/537.36" version="24.5.5" etag="QZ6hXhcWXy3VlAggaluo" type="github">
  <diagram name="Page-1" id="4OJhceKl_JUozp6NLaiy">
    <mxGraphModel>
      <root>
        <mxCell id="0" />
        <mxCell id="1" parent="0" />
      </root>
    </mxGraphModel>
  </diagram>
</mxfile>
